<svg width="45" height="29" viewBox="0 0 45 29" fill="none" xmlns="http://www.w3.org/2000/svg">
<path d="M42.882 9.97391V3.78981C42.882 3.02182 42.5769 2.28529 42.0339 1.74225C41.4908 1.1992 40.7543 0.894119 39.9863 0.894119H5.23806C4.47008 0.894119 3.73355 1.1992 3.1905 1.74225C2.64745 2.28529 2.34237 3.02182 2.34237 3.78981V9.97391C1.90288 10.2276 1.53778 10.5924 1.28367 11.0317C1.02957 11.471 0.895369 11.9694 0.894531 12.4769V21.1639C0.894531 21.9319 1.19961 22.6684 1.74266 23.2115C2.2857 23.7545 3.02223 24.0596 3.79022 24.0596H5.23806V26.9553C5.23806 27.3393 5.3906 27.7076 5.66212 27.9791C5.93365 28.2506 6.30191 28.4031 6.6859 28.4031C7.0699 28.4031 7.43816 28.2506 7.70968 27.9791C7.98121 27.7076 8.13375 27.3393 8.13375 26.9553V24.0596H37.0906V26.9553C37.0906 27.3393 37.2431 27.7076 37.5147 27.9791C37.7862 28.2506 38.1545 28.4031 38.5385 28.4031C38.9224 28.4031 39.2907 28.2506 39.5622 27.9791C39.8338 27.7076 39.9863 27.3393 39.9863 26.9553V24.0596H41.4341C42.2021 24.0596 42.9387 23.7545 43.4817 23.2115C44.0247 22.6684 44.3298 21.9319 44.3298 21.1639V12.4769C44.329 11.9694 44.1948 11.471 43.9407 11.0317C43.6866 10.5924 43.3215 10.2276 42.882 9.97391ZM39.9863 9.58118H38.5385C37.7705 9.58118 37.0339 9.88626 36.4909 10.4293C35.9478 10.9724 35.6428 11.7089 35.6428 12.4769V15.3726H24.06V3.78981H39.9863V9.58118ZM21.1643 3.78981V15.3726H9.58159V12.4769C9.58159 11.7089 9.27651 10.9724 8.73346 10.4293C8.19042 9.88626 7.45389 9.58118 6.6859 9.58118H5.23806V3.78981H21.1643ZM41.4341 21.1639H3.79022V12.4769H6.6859V16.8204C6.6859 17.2044 6.83844 17.5727 7.10997 17.8442C7.38149 18.1157 7.74976 18.2682 8.13375 18.2682H37.0906C37.4746 18.2682 37.8429 18.1157 38.1144 17.8442C38.3859 17.5727 38.5385 17.2044 38.5385 16.8204V12.4769H41.4341V21.1639Z" fill="#803CD9"/>
<path d="M32.8458 15.0358H28.8053V10.9954H30.8255C31.3613 10.9954 31.8752 10.7825 32.254 10.4036C32.6329 10.0248 32.8458 9.51091 32.8458 8.9751V2.91437C32.8458 2.37856 32.6329 1.86471 32.254 1.48584C31.8752 1.10697 31.3613 0.894119 30.8255 0.894119H14.6635C14.1277 0.894119 13.6139 1.10697 13.235 1.48584C12.8561 1.86471 12.6433 2.37856 12.6433 2.91437V8.9751C12.6433 9.51091 12.8561 10.0248 13.235 10.4036C13.6139 10.7825 14.1277 10.9954 14.6635 10.9954H16.6838V15.0358H12.6433C12.1075 15.0358 11.5936 15.2487 11.2148 15.6276C10.8359 16.0064 10.623 16.5203 10.623 17.0561V19.0763C10.623 19.6121 10.8359 20.126 11.2148 20.5049C11.5936 20.8837 12.1075 21.0966 12.6433 21.0966H13.6534V26.1472C13.6534 26.4151 13.7598 26.672 13.9493 26.8615C14.1387 27.0509 14.3956 27.1573 14.6635 27.1573C14.9314 27.1573 15.1884 27.0509 15.3778 26.8615C15.5672 26.672 15.6737 26.4151 15.6737 26.1472V21.0966H29.8154V26.1472C29.8154 26.4151 29.9218 26.672 30.1112 26.8615C30.3007 27.0509 30.5576 27.1573 30.8255 27.1573C31.0934 27.1573 31.3503 27.0509 31.5398 26.8615C31.7292 26.672 31.8356 26.4151 31.8356 26.1472V21.0966H32.8458C33.3816 21.0966 33.8954 20.8837 34.2743 20.5049C34.6532 20.126 34.866 19.6121 34.866 19.0763V17.0561C34.866 16.5203 34.6532 16.0064 34.2743 15.6276C33.8954 15.2487 33.3816 15.0358 32.8458 15.0358ZM14.6635 2.91437H30.8255V8.9751H14.6635V2.91437ZM18.704 10.9954H26.785V15.0358H18.704V10.9954ZM32.8458 19.0763H12.6433V17.0561H32.8458V19.0763Z" fill="#D2B0FF"/>
</svg>
