<svg width="50" height="50" viewBox="0 0 50 50" fill="none" xmlns="http://www.w3.org/2000/svg">
<path d="M24.8732 2.57324C22.4419 2.57324 20.1102 3.53905 18.3911 5.25821C16.6719 6.97736 15.7061 9.30904 15.7061 11.7403V14.796H6.53906V47.3899H43.2073V14.796H34.0402V11.7403C34.0402 9.30904 33.0744 6.97736 31.3552 5.25821C29.6361 3.53905 27.3044 2.57324 24.8732 2.57324ZM29.966 11.7403V14.796H19.7804V11.7403C19.7804 10.3896 20.3169 9.09422 21.272 8.13913C22.2271 7.18405 23.5225 6.64749 24.8732 6.64749C26.2239 6.64749 27.5192 7.18405 28.4743 8.13913C29.4294 9.09422 29.966 10.3896 29.966 11.7403ZM15.7061 24.9816V18.8702H19.7804V24.9816H15.7061ZM29.966 24.9816V18.8702H34.0402V24.9816H29.966Z" fill="#5E5E5E"/>
</svg>
