<svg width="45" height="29" viewBox="0 0 45 29" fill="none" xmlns="http://www.w3.org/2000/svg">
<path d="M42.882 9.97395V3.78985C42.882 3.02187 42.5769 2.28534 42.0339 1.74229C41.4908 1.19925 40.7543 0.894165 39.9863 0.894165H5.23806C4.47008 0.894165 3.73355 1.19925 3.1905 1.74229C2.64745 2.28534 2.34237 3.02187 2.34237 3.78985V9.97395C1.90288 10.2277 1.53778 10.5925 1.28367 11.0318C1.02957 11.4711 0.895369 11.9694 0.894531 12.4769V21.164C0.894531 21.932 1.19961 22.6685 1.74266 23.2115C2.2857 23.7546 3.02223 24.0597 3.79022 24.0597H5.23806V26.9553C5.23806 27.3393 5.3906 27.7076 5.66212 27.9791C5.93365 28.2506 6.30191 28.4032 6.6859 28.4032C7.0699 28.4032 7.43816 28.2506 7.70968 27.9791C7.98121 27.7076 8.13375 27.3393 8.13375 26.9553V24.0597H37.0906V26.9553C37.0906 27.3393 37.2431 27.7076 37.5147 27.9791C37.7862 28.2506 38.1545 28.4032 38.5385 28.4032C38.9224 28.4032 39.2907 28.2506 39.5622 27.9791C39.8338 27.7076 39.9863 27.3393 39.9863 26.9553V24.0597H41.4341C42.2021 24.0597 42.9387 23.7546 43.4817 23.2115C44.0247 22.6685 44.3298 21.932 44.3298 21.164V12.4769C44.329 11.9694 44.1948 11.4711 43.9407 11.0318C43.6866 10.5925 43.3215 10.2277 42.882 9.97395ZM39.9863 9.58122H38.5385C37.7705 9.58122 37.0339 9.8863 36.4909 10.4294C35.9478 10.9724 35.6428 11.7089 35.6428 12.4769V15.3726H24.06V3.78985H39.9863V9.58122ZM21.1643 3.78985V15.3726H9.58159V12.4769C9.58159 11.7089 9.27651 10.9724 8.73346 10.4294C8.19042 9.8863 7.45389 9.58122 6.6859 9.58122H5.23806V3.78985H21.1643ZM41.4341 21.164H3.79022V12.4769H6.6859V16.8204C6.6859 17.2044 6.83844 17.5727 7.10997 17.8442C7.38149 18.1157 7.74976 18.2683 8.13375 18.2683H37.0906C37.4746 18.2683 37.8429 18.1157 38.1144 17.8442C38.3859 17.5727 38.5385 17.2044 38.5385 16.8204V12.4769H41.4341V21.164Z" fill="#803CD9"/>
<path d="M32.8458 15.0359H28.8053V10.9954H30.8255C31.3613 10.9954 31.8752 10.7825 32.254 10.4037C32.6329 10.0248 32.8458 9.51095 32.8458 8.97515V2.91441C32.8458 2.37861 32.6329 1.86475 32.254 1.48588C31.8752 1.10701 31.3613 0.894165 30.8255 0.894165H14.6635C14.1277 0.894165 13.6139 1.10701 13.235 1.48588C12.8561 1.86475 12.6433 2.37861 12.6433 2.91441V8.97515C12.6433 9.51095 12.8561 10.0248 13.235 10.4037C13.6139 10.7825 14.1277 10.9954 14.6635 10.9954H16.6838V15.0359H12.6433C12.1075 15.0359 11.5936 15.2487 11.2148 15.6276C10.8359 16.0065 10.623 16.5203 10.623 17.0561V19.0764C10.623 19.6122 10.8359 20.126 11.2148 20.5049C11.5936 20.8838 12.1075 21.0966 12.6433 21.0966H13.6534V26.1472C13.6534 26.4151 13.7598 26.6721 13.9493 26.8615C14.1387 27.0509 14.3956 27.1574 14.6635 27.1574C14.9314 27.1574 15.1884 27.0509 15.3778 26.8615C15.5672 26.6721 15.6737 26.4151 15.6737 26.1472V21.0966H29.8154V26.1472C29.8154 26.4151 29.9218 26.6721 30.1112 26.8615C30.3007 27.0509 30.5576 27.1574 30.8255 27.1574C31.0934 27.1574 31.3503 27.0509 31.5398 26.8615C31.7292 26.6721 31.8356 26.4151 31.8356 26.1472V21.0966H32.8458C33.3816 21.0966 33.8954 20.8838 34.2743 20.5049C34.6532 20.126 34.866 19.6122 34.866 19.0764V17.0561C34.866 16.5203 34.6532 16.0065 34.2743 15.6276C33.8954 15.2487 33.3816 15.0359 32.8458 15.0359ZM14.6635 2.91441H30.8255V8.97515H14.6635V2.91441ZM18.704 10.9954H26.785V15.0359H18.704V10.9954ZM32.8458 19.0764H12.6433V17.0561H32.8458V19.0764Z" fill="#D2B0FF"/>
</svg>
