<svg width="50" height="50" viewBox="0 0 50 50" fill="none" xmlns="http://www.w3.org/2000/svg">
<path d="M9.11523 23.5434V16.5459L12.6578 23.632L16.2014 16.5459V23.632M12.7433 26.2813H15.0463M13.3341 28.1086H14.6868M16.6078 29.7098H18.9097M14.9149 33.2534L17.6223 26.1672H21.1648M11.0902 26.2874H11.2817M25.0078 30.8261H21.8197M21.0222 33.2167L23.4138 26.1316L25.8054 33.2167M27.5349 32.6208C27.978 33.1515 28.5097 33.4174 29.3072 33.4174H30.3695C31.3433 33.4174 32.1408 32.6198 32.1408 31.6451C32.1408 30.6713 31.3433 29.8748 30.3685 29.8748H29.2176C28.7481 29.8732 28.2984 29.6859 27.9665 29.3539C27.6346 29.0218 27.4476 28.572 27.4463 28.1025C27.4463 27.1288 28.2438 26.3312 29.2186 26.3312H30.2809C31.0775 26.3312 31.6091 26.5085 32.0522 27.1288M33.4802 26.1947H38.0862M35.7832 33.2809V26.1947M23.3384 16.5459H27.9433M25.6414 23.632V16.5459M29.6341 23.632V16.5459H31.9361C33.2653 16.5459 34.3287 17.6093 34.3287 18.9375C34.3287 20.2657 33.2653 21.3291 31.9371 21.3291M31.9371 21.3291H29.6341M31.9371 21.3291L34.2401 23.632M18.1478 20.0885H20.4508M21.6904 23.632H18.1478V16.5459H21.6904M38.299 23.632C37.9961 23.6341 37.6958 23.5759 37.4155 23.4609C37.1352 23.3458 36.8806 23.1763 36.6664 22.962C36.4523 22.7477 36.2828 22.493 36.1679 22.2127C36.053 21.9324 35.9949 21.632 35.9971 21.3291V18.9375C35.9971 17.6093 37.0595 16.5459 38.299 16.5459C38.6134 16.5448 38.9249 16.606 39.2155 16.7258C39.5062 16.8456 39.7703 17.0217 39.9926 17.244C40.2148 17.4663 40.391 17.7304 40.5108 18.021C40.6306 18.3116 40.6917 18.6231 40.6906 18.9375V21.2394C40.6918 21.5539 40.6308 21.8655 40.5111 22.1562C40.3913 22.447 40.2152 22.7112 39.9929 22.9336C39.7706 23.156 39.5065 23.3322 39.2158 23.4521C38.9251 23.572 38.6135 23.6331 38.299 23.632Z" stroke="#5E5E5E" stroke-width="1.5" stroke-linecap="round" stroke-linejoin="round"/>
<path d="M39.6731 6.13843H10.1348C9.05423 6.13843 8.01793 6.56768 7.25387 7.33175C6.4898 8.09582 6.06055 9.13212 6.06055 10.2127V39.7509C6.06055 40.8315 6.4898 41.8678 7.25387 42.6319C8.01793 43.3959 9.05423 43.8252 10.1348 43.8252H39.6731C40.7536 43.8252 41.7899 43.3959 42.554 42.6319C43.3181 41.8678 43.7473 40.8315 43.7473 39.7509V10.2127C43.7473 9.13212 43.3181 8.09582 42.554 7.33175C41.7899 6.56768 40.7536 6.13843 39.6731 6.13843Z" stroke="#5E5E5E" stroke-width="2" stroke-linecap="round" stroke-linejoin="round"/>
</svg>
