<svg width="50" height="50" viewBox="0 0 50 50" fill="none" xmlns="http://www.w3.org/2000/svg">
<path d="M2.15127 2.27954L2.15108 2.28097C25.9894 5.81363 37.6642 18.5127 40.0912 28.8282C39.8913 29.3989 39.6619 29.8828 39.4163 30.2575C37.7653 32.7768 33.4461 34.0842 29.7093 32.9881C30.2807 31.1022 30.6768 29.1844 30.8619 27.3427C21.7464 28.1236 10.566 28.1468 2.09961 25.1806C6.08413 34.2825 11.5842 40.8854 17.8539 47.151C19.6009 46.9444 21.2731 46.0672 22.8038 44.7284C30.9412 48.0388 40.7622 44.4844 44.456 38.9341C48.9366 32.202 51.5289 8.61407 28.465 2.27964H22.4889C37.7985 7.51956 41.1792 18.2971 40.7823 25.1046C37.2348 16.1642 27.6352 6.78438 10.9531 2.27964H2.15146L2.15127 2.27954Z" fill="#5E5E5E"/>
</svg>
