<svg width="120" height="96" viewBox="0 0 120 96" fill="none" xmlns="http://www.w3.org/2000/svg">
<path d="M97.4674 49.2971C110.798 49.2971 119.782 58.738 119.782 72.7265C119.782 85.3143 109.457 95.8014 95.472 95.8014C80.154 95.8014 68.8353 83.2135 68.8353 63.9859C68.8353 20.2828 100.134 2.80154 119.782 0.700684V19.9283C106.459 22.375 91.4811 36.009 90.8103 51.0522C91.4811 50.7063 94.1389 49.2971 97.4674 49.2971ZM29.5468 49.2971C42.8609 49.2971 51.853 58.738 51.853 72.7265C51.853 85.3143 41.5278 95.8014 27.5429 95.8014C12.2249 95.8014 0.90625 83.2135 0.90625 63.9859C0.90625 20.2828 32.2046 2.80154 51.853 0.700684V19.9283C38.5304 22.375 23.5521 36.009 22.8813 51.0522C23.5521 50.7063 26.2098 49.2971 29.5468 49.2971Z" fill="white"/>
</svg>
